<svg id="Calque_1" data-name="Calque 1" xmlns="http://www.w3.org/2000/svg" viewBox="0 0 612.29 731.87"><defs><style>.cls-1{fill:#572716;}.cls-2{fill:#35160f;}.cls-3{fill:#e7b963;}.cls-4{fill:#812420;}.cls-5{fill:#764c28;}.cls-6{fill:#f8bb54;}.cls-7{fill:#c75849;}.cls-8{fill:#392314;}.cls-9{fill:#ba8f4b;}.cls-10{fill:#55622d;}.cls-11{fill:#c05f57;}</style></defs><title>logoweb</title><path class="cls-1" d="M260.36,831.25a6.38,6.38,0,0,0-4.29,1.82,8.34,8.34,0,0,0-2.58,4.08l-18.89,59a14.3,14.3,0,0,0-.75,3.43q0,4.93,4.94,4.94,4.5,0,6.12-5.26l3.75-12.23h20.39l4.51,16.74h13.52l-20-66.86Q265.4,831.25,260.36,831.25Zm-8.8,46.36,7.19-24c.07-.43.21-.65.43-.65a2.6,2.6,0,0,1,.43.54l6.76,24.15Z" transform="translate(-233.85 -174.07)"/><path class="cls-1" d="M326.35,853.67a9.55,9.55,0,0,0-4.83-1.17,17.82,17.82,0,0,0-14.7,7.29q0-7.72-5.79-7.72a5.41,5.41,0,0,0-4.29,1.82,6.55,6.55,0,0,0-1.61,4.51v45.39h11.69V874.92a13.78,13.78,0,0,1,3.12-8.69,9.86,9.86,0,0,1,7.94-4.18h1.71a7.32,7.32,0,0,0,1.18.1h.86q7.19,0,7.19-4.61A4.14,4.14,0,0,0,326.35,853.67Z" transform="translate(-233.85 -174.07)"/><path class="cls-1" d="M360.58,897.67a20.06,20.06,0,0,1-5.58-4.51q-2.89-4.06-2.89-11.48V861.62h9.44v-8.7h-9.44V842.09H341.16v10.83H334.4v8.7h6.76v21.46q0,7.83,2.26,12.45,2.56,5.36,9.12,8.58a14.7,14.7,0,0,0,6.65,1.4q4.29,0,4.29-3.65C363.48,900.35,362.52,899,360.58,897.67Z" transform="translate(-233.85 -174.07)"/><path class="cls-1" d="M379.47,832.21a6.45,6.45,0,0,0-4.83,2.15,6.55,6.55,0,0,0-1.93,4.83,7.13,7.13,0,0,0,1.93,4.93,7,7,0,0,0,9.77-.1,7,7,0,0,0-4.94-11.81Z" transform="translate(-233.85 -174.07)"/><path class="cls-1" d="M373.78,898a10.62,10.62,0,0,0,1.29,5.37,5,5,0,0,0,4.51,2.57,5.12,5.12,0,0,0,4.61-2.57,9.8,9.8,0,0,0,1.4-5.26V853H373.78Z" transform="translate(-233.85 -174.07)"/><path class="cls-1" d="M424.86,877.93q-.32-.33-9.76-5.58-5.27-2.9-5.26-6.23,0-4.5,7.72-4.5h10.09v-8.8H415.1q-18.57,0-18.57,15.24,0,5.46,5.26,9.55,2.58,1.5,5,2.89c1.65.93,3.29,1.9,4.94,2.9,3.58,2.08,5.36,4.22,5.36,6.44a5.12,5.12,0,0,1-2.89,4.51,10.38,10.38,0,0,1-5.37,1.39,10.25,10.25,0,0,1-5.26-2q-3.11-2.15-4.83-2.14a3.82,3.82,0,0,0-2.95,1.23,4.36,4.36,0,0,0-1.12,3.06q0,3.75,6.11,6.76a22,22,0,0,0,9.55,2.57q8.47,0,13.95-4.4,5.91-4.71,5.91-13C430.23,883.87,428.44,880.57,424.86,877.93Z" transform="translate(-233.85 -174.07)"/><path class="cls-1" d="M440.85,863.87q-4.39,8.68-4.4,20.93a27.81,27.81,0,0,0,2.9,13q3.54,7,10.19,7,7.31,0,12.56-6.54,0,6.66,5.79,6.65a5.65,5.65,0,0,0,4.29-1.82,6.83,6.83,0,0,0,1.51-4.51V852.92h-16.1Q446.43,852.92,440.85,863.87ZM462,861.94v26.4q-4.39,6.75-8.26,6.76-6.12,0-6.12-14.92a25.3,25.3,0,0,1,2.68-11.48q3.22-6.76,8.59-6.76Z" transform="translate(-233.85 -174.07)"/><path class="cls-1" d="M509.1,852.07q-7.2,0-12.24,6.43,0-6.75-5.9-6.76a5.24,5.24,0,0,0-4.18,1.88,6.73,6.73,0,0,0-1.61,4.56v45.61h11.69V868.27q3.12-6.76,8.27-6.76,6.11,0,6.11,13.84l-.1,28.44h11.48V871.92a26.91,26.91,0,0,0-3-13Q515.86,852.08,509.1,852.07Z" transform="translate(-233.85 -174.07)"/><path class="cls-1" d="M585.61,831.25a6.4,6.4,0,0,0-4.3,1.82,8.39,8.39,0,0,0-2.57,4.08l-18.89,59a14.3,14.3,0,0,0-.75,3.43q0,4.93,4.94,4.94,4.5,0,6.11-5.26l3.76-12.23H594.3l4.51,16.74h13.52l-20-66.86Q590.65,831.25,585.61,831.25Zm-8.8,46.36,7.19-24c.07-.43.21-.65.43-.65a3,3,0,0,1,.43.54l6.76,24.15Z" transform="translate(-233.85 -174.07)"/><path class="cls-1" d="M625.85,838.65q-3.54,5.48-3.54,14.27h-7.09v8.16h7.09V899.6a5.86,5.86,0,0,0,1.55,4.14,5.3,5.3,0,0,0,4,1.66,5.12,5.12,0,0,0,4-1.66,6,6,0,0,0,1.5-4.14V861.08h9.44v-8.16h-9.22v-2.25q.1-7,1.39-8.8c1.07-1.36,3.86-2.07,8.37-2.15v-7.61h-5Q630,832.11,625.85,838.65Z" transform="translate(-233.85 -174.07)"/><path class="cls-1" d="M680.9,853.67a9.55,9.55,0,0,0-4.83-1.17,17.81,17.81,0,0,0-14.7,7.29q0-7.72-5.8-7.72a5.41,5.41,0,0,0-4.29,1.82,6.55,6.55,0,0,0-1.61,4.51v45.39h11.7V874.92a13.77,13.77,0,0,1,3.11-8.69,9.86,9.86,0,0,1,7.94-4.18h1.72a7.23,7.23,0,0,0,1.18.1h.85c4.8,0,7.19-1.54,7.19-4.61A4.14,4.14,0,0,0,680.9,853.67Z" transform="translate(-233.85 -174.07)"/><path class="cls-1" d="M700.53,832.21a6.45,6.45,0,0,0-4.83,2.15,6.59,6.59,0,0,0-1.93,4.83,7.18,7.18,0,0,0,1.93,4.93,7,7,0,0,0,9.77-.1,7,7,0,0,0-4.94-11.81Z" transform="translate(-233.85 -174.07)"/><path class="cls-1" d="M694.84,898a10.62,10.62,0,0,0,1.29,5.37,5,5,0,0,0,4.51,2.57,5.12,5.12,0,0,0,4.61-2.57,9.8,9.8,0,0,0,1.4-5.26V853H694.84Z" transform="translate(-233.85 -174.07)"/><path class="cls-1" d="M750.64,891.45q-1.39,0-4.29,1.93a10.45,10.45,0,0,1-5.58,1.82q-11.16,0-11.16-16.63,0-16.85,12.24-16.85h8.79v-9H740.56q-11.38-.11-17.82,7.08-6,6.87-6,18.57a29.52,29.52,0,0,0,5.58,17.92q6.12,8.58,16.1,8.58a25,25,0,0,0,10-2.36q6.43-3,6.44-7a3.88,3.88,0,0,0-1.24-2.85A4,4,0,0,0,750.64,891.45Z" transform="translate(-233.85 -174.07)"/><path class="cls-1" d="M764.38,863.87Q760,872.56,760,884.8a27.69,27.69,0,0,0,2.9,13q3.54,7,10.19,7,7.29,0,12.56-6.54,0,6.66,5.79,6.65a5.65,5.65,0,0,0,4.29-1.82,6.87,6.87,0,0,0,1.5-4.51V852.92H781.12Q770,852.92,764.38,863.87Zm21.14-1.93v26.4q-4.41,6.75-8.26,6.76-6.12,0-6.12-14.92a25.3,25.3,0,0,1,2.68-11.48q3.23-6.76,8.59-6.76Z" transform="translate(-233.85 -174.07)"/><path class="cls-1" d="M843.14,858.93q-3.75-6.85-10.51-6.86-7.2,0-12.24,6.43,0-6.75-5.9-6.76a5.24,5.24,0,0,0-4.18,1.88,6.73,6.73,0,0,0-1.61,4.56v45.61h11.69V868.27q3.12-6.76,8.27-6.76,6.11,0,6.11,13.84l-.11,28.44h11.49V871.92A27,27,0,0,0,843.14,858.93Z" transform="translate(-233.85 -174.07)"/><path class="cls-2" d="M786.82,480.54c-7.45-12.17-16.31-19.87-28-27.89-5.52-3.81-11.81-6.08-17.19-10.11l7.08,5.48c-7.77-5.86-15.85-11.12-23.63-16.93l6.14,4.74a177.22,177.22,0,0,0-19.75-13.28c-6.15-16.53-19.5-29.53-36.76-34-1.52-8.39-7.31-15.84-17.35-17.3-.28-1.75-.59-3.5-.95-5.26-.06-.26-.94-2.79-1-2.13-1-6.79,1-13.18,2.35-20.77,1.17-6.47,3.64-15.62,4.8-23.23,1.54-10.14,1.44-19.63,1.3-29.82-.33-23.32-30-27.62-40.65-12.8a57.42,57.42,0,0,0-34.51-3.44c-12.6-1.88-25.11-2.94-37.78.18-14.83.46-30-.54-44.74-.54a48.77,48.77,0,0,0-6.39.44,52.27,52.27,0,0,0-40.09,11.56,65.15,65.15,0,0,0-8.56-9.89c-8.84-8.09-22.65-8.74-31.39,0-8.2,8.21-8.87,23.26,0,31.38,3.71,3.4,2.7,2.32,5.45,6.46,1.23,1.85,2.47,3.69,3.74,5.52-8.62,13.19-12.07,30.06-7.41,44.44a62.86,62.86,0,0,0,3.33,8.27c-11.51,7.65-20.34,19.53-23.4,32.85-1.26,0-2.52.08-3.77.15-11.87.67-21.34,3.33-31.5,9.66-6.32,3.94-11.77,9.34-17.57,14,.55-.42,1.1-.84,1.64-1.27a202.92,202.92,0,0,0-35.59,37.54c-.26.37-.51.76-.77,1.13A45.74,45.74,0,0,0,309.8,468c-24.68,15.9-34.23,47.42-19.29,73.57,1.42,2.49,2.92,4.94,4.33,7.42,4.87,14.42,9.89,28.51,13,43.56,3.74,17.86,11.48,33.85,19,50.17,4.49,12.26,9.14,23.56,18.59,33.41a47.41,47.41,0,0,0,10.62,8.25c2.85,11.9,8.55,21.16,15.72,30.75l-2.07-2.67c3.86,5.26,5.75,11.32,9,16.9,2.1,3.56,4.15,7.05,6.06,10.65,3.44,9.25,7.46,17.85,14.64,25.28,8.56,8.85,18.73,14.66,30.43,18.45a129.28,129.28,0,0,0,30.33,5.61,52.76,52.76,0,0,0,14.82,2.11h41.29c8.57,0,17.44-.7,26.15-.66a80.15,80.15,0,0,0,12.82,5c12.35,3.36,23.47,3.33,36,1,9.35-1.7,17.94-5.86,26.53-9.89l5.38-1.91a46.26,46.26,0,0,0,20.3-1.93,75.79,75.79,0,0,0,33-20.79c8.41-9.05,12.4-16.63,16.64-26.43l-1.86,4.4c2.42-4.76,4.69-9.62,7-14.46a139,139,0,0,0,12.31-12.76c8.05-9.6,13.89-19.69,15.37-31.89,5.33-7.39,10.85-14.63,16.24-22A111.18,111.18,0,0,0,750.34,647c4.2-7.73,5.82-15.27,6.91-23.18a229.32,229.32,0,0,1,7.65-25.95A116.36,116.36,0,0,0,772,580.39a78.75,78.75,0,0,0,2.4-15c.47-1.66,1-3.31,1.6-4.94.57-1.1,1.17-2.17,1.81-3.22,6.18-7.78,11.64-15.66,14.83-25.55C798,515,796,495.57,786.82,480.54Z" transform="translate(-233.85 -174.07)"/><path class="cls-3" d="M579.08,222.58l-.62-.19Z" transform="translate(-233.85 -174.07)"/><path class="cls-3" d="M666.61,230.92a24.13,24.13,0,0,0-5.53.62,22.74,22.74,0,0,0-8.93-1.73l-6.56,0a24,24,0,0,0-6.79-1.09c-2.11,0-4.18,0-6.23,0A21.39,21.39,0,0,0,621,225.36c-5.52,0-11.68-.79-17.15,0l-.34,0c-2-.34-3.92-.63-5.89-.81a64.84,64.84,0,0,0-7.76-.25,21.3,21.3,0,0,0-4,.46c-2.28-.72-4.54-1.46-6.8-2.13a16.53,16.53,0,0,1-1.64-.45c-4.66-1.66-5.75-2.49-10.19-3.07a41.94,41.94,0,0,0-17.55,1.09A39.8,39.8,0,0,0,543,223c-8.79-.07-17.63.14-26.57.14a22.18,22.18,0,0,0-10,2.25h-7.22c-7.41,0-16.28,1-22.85.34-7.48-.7-17-2.55-25.47-2.65-8.83-.11-17.67.4-26.5.46-28.55.2-28.61,44.58,0,44.38,8.31-.06,16.62-.51,24.94-.48,8.73,0,16.76,1.82,25.41,2.5,11.28.89,22.88.46,34.38.12,3.51,5.06,9.3,8.58,17.35,8.58,20.4,0,42.16,2.47,62.23-1.58a59.61,59.61,0,0,1,6.41-.87c3.51.89,7,1.72,10.45,2.87-.07,0,2.38.95,2.54,1a43,43,0,0,0,5.85,2.4c11.69,8.33,25.76,2.14,31.87-8.29h6.35a24.1,24.1,0,0,0,5.52-.63,22.4,22.4,0,0,0,8.94,1.75C695.17,275.31,695.22,230.92,666.61,230.92Z" transform="translate(-233.85 -174.07)"/><path class="cls-1" d="M529.13,425.9c-8.67-8.34-24.41-8.15-32.74.59-.45-.16-.89-.32-1.34-.45a20.53,20.53,0,0,0-19,3.9c-.4-.14-.79-.3-1.2-.43-15.83-5.05-32.23-12.17-48.71-14.74a30,30,0,0,0-11.68.37c-3.57-4-8.84-6.66-15.83-6.65-41.3.06-90.78,18.3-98.34,64.38a28.58,28.58,0,0,0,.53,12,20.78,20.78,0,0,0-5.32,14.52c0,16.86-1.45,32.64,5.56,48.49,1,2.18,2,4.39,3.2,6.54-8.11,9.78-12.82,24.15-9.14,36.37s12.34,23.82,20.31,33.45c4.23,5.11,9.87,9.82,14.82,14.58a82.81,82.81,0,0,0,5,23.24c3,7.65,6.55,17.06,12.28,23.16a24.9,24.9,0,0,0,16.68,7.67c2.5,13.93,9.06,26.66,18.34,37.74a212,212,0,0,0,17.31,17.65c3.07,2.9,6.13,5.82,9.28,8.63.82.83,1.69,1.6,2.58,2.34,2.3,9.93,10.86,17.92,20.08,21.26,7.94,2.89,16,2.33,24.21,3,5.93.49,14.5-.16,19.38.91,5.68,1.26,10.62,3.55,15.87,5.3,8.17,4.09,14.72,4.81,22.92,5.07a25.3,25.3,0,0,0,9.63,1.34c13.09,7.58,34.32,1.51,34.32-18.27V446.4C558.1,429.17,541.94,422.34,529.13,425.9Zm-130.9,64.68c.41-1.54.8-3.09,1.2-4.63,0,1.37,0,2.74,0,4.1C399.05,490.23,398.63,490.39,398.23,490.58Z" transform="translate(-233.85 -174.07)"/><path class="cls-4" d="M776.34,469.71c-4.64-4.91-10.45-9.07-15.61-13.45-7.83-6.66-15.83-13.83-24.28-19.67a144.8,144.8,0,0,1-16.06-12.27c-8.67-7.67-15.49-13.93-27.64-15.18-9.09-.94-18.18.06-27.15,1.24,1.12-.14,3.49-.46-1.89.13a47.27,47.27,0,0,0-11.08,2.25c-4.36,1.52-8.55,3.54-12.93,5.05-8.79,3.05-18.37,4-27,7.41-.35.14-1.85.65-3.32,1.26h-3c-4.68,0-9.35,0-14,0a19.48,19.48,0,0,0-6.48-3.27c-13.08-7.74-34.49-1.71-34.49,18.17V789.25c0,9,4.39,15.14,10.41,18.48A59.59,59.59,0,0,1,582,804.1a69.74,69.74,0,0,1,7.71.44,19.53,19.53,0,0,0,3.24-4.11c7.7,2.38,16.62,1.12,22.32-4.56,11.3-2.31,21.64-7.37,29.72-17,2.7-3.22,5.07-6.69,7.49-10.12a32.49,32.49,0,0,0,6.12-3.82c-4.13,3.25,1,0,1.55-.42a62.24,62.24,0,0,0,5.8-4.44c3.08-.82,8.84-3.38,11.5-6.1,1.94-.77,3.82-1.86,5.63-2.76,8.38-4.2,13.06-16.21,10.2-25.06-.08-.26-.19-.51-.28-.76,1.23-2,2.44-4,3.83-5.82,3.79-5.11,10.35-10.72,15.59-15.48a156.75,156.75,0,0,0,19.33-20.41A45.78,45.78,0,0,0,739,670.9c.44-1.22.73-2.51,1.18-3.71l.47-.39c9.21-7.68,7.94-23.45,0-31.38l-.33-.31c4.8-6.75,9.24-13.79,13.66-20.45.67-1,4.31-6.43,3.57-5.62,3.43-3.73,6.69-6,9.51-10.52,4.65-7.49,8.52-16,10-24.71s2.87-17.26,3.59-26c0-.64.17-2.3.17-2.35.25-2.85.85-5.67,1.12-8.52.47-4.92.26-10,1-14.9,1.09-6.85,3.07-13.75,4.39-20.62C789.61,489.42,784.54,478.38,776.34,469.71Zm-142.9,131.9c0,5.45-.22,10.9-.27,16.34-.1,10.77,0,21.54,0,32.3v7.52l-.33,0c.24-7.53.29-15.06.24-22.59q-.12-18.81-.17-37.63C633.63,598.64,633.42,598.58,633.44,601.61Zm23.29-58.24c-.31-.75-.62-1.51-.94-2.25-.17-.38-.52-1.18-.92-2.06.22.17.43.34.66.5.42.32.86.6,1.29.91C656.8,541.44,656.76,542.4,656.73,543.37Z" transform="translate(-233.85 -174.07)"/><path class="cls-4" d="M780.63,547.36c0,.16,0,.32,0,.48C780.56,548.2,780.56,548.22,780.63,547.36Z" transform="translate(-233.85 -174.07)"/><path class="cls-5" d="M541.21,217.29c20.77,1.6,37.79,2.33,49.54,2.7,2.61.08,27.94,2.5,78.49,7.33,8.59.82,19.91,1.9,24,9.5,3.27,6,.23,13.11-2.69,21-7.64,20.6-15.79,41-22.72,61.86-10.16,30.58-.83,55.65,24.71,74.2,13.3,9.67,27.93,17.57,42.24,25.77C794,453.51,811.19,494.38,794.77,561c-16.16,65.55-55.35,118.76-89.2,175.48-34.45,57.71-86.27,72.7-145.49,73.43-36.89.45-74.22-4.75-110.7-11.14-24.77-4.34-45-17.71-58.85-42-23.89-41.84-54.46-80-76.55-122.68-15.71-30.34-24.49-65-32.07-98.64-10-44.37,9.71-78.76,45.56-104.11,14.92-10.55,31.55-18.65,47.16-28.27,41.1-25.32,50.25-50.11,34.7-95.84-5.69-16.75-13.14-32.9-19.54-49.41-2.33-6-6.44-13.6-3.24-20.1s11.81-8.42,19.62-9.95c35.77-7,50-7.33,50-7.33,14.3-.34,35.31-1.18,62.1-3.45ZM783.62,534.13c-165,44.1-322.94,44.44-485.68-.06,6.79,23,9.7,45.42,19.64,64.09,26.06,49,56.06,95.81,82.68,144.49,10.76,19.68,26.2,29.44,46.48,34.5,53,13.23,106.27,13.64,160.08,4.9,36.56-5.94,66-18.37,83.95-55.07,19.76-40.45,46.71-77.34,67.36-117.41C769.56,587.4,774.51,561.9,783.62,534.13ZM540.45,545.28c37.86-2.59,76-3.23,113.49-8.34,36.17-4.92,72-13.13,107.39-22.43C785.75,508.09,788.5,498,776.56,477c-1.81-3.19-3.23-7.17-6-9.15-27.14-19.46-54.36-38.8-82.08-57.4-2.74-1.84-9.18.89-13.52,2.51-80.64,30.26-162.91,34.75-244.31,7.32-29-9.78-51.18-7.9-73.28,9.79C339,444.8,319.34,459,305,477.22c-14.68,18.56-10.54,26.19,11.22,35.54,18.68,8,31.19,10.41,31.19,10.41C368.84,526.44,441.44,535.28,540.45,545.28Zm-126.19-153c45.24,37.93,206.1,37.75,248.42,3-4.58-20.14-11.54-38.06-12-56.13-.43-18.89,5.44-37.92,8.84-58.65-79.71,16.39-159.53,19.33-240.31-.24C429.77,319.65,440,357,414.26,392.31ZM404.21,236.64l-1.53,9.44c8.48,3.9,16.6,9.54,25.51,11.45a534.14,534.14,0,0,0,222.05.81c10-2.07,19.1-8.48,28.61-12.89q-.75-3.78-1.49-7.57C586.36,219.5,495.31,220,404.21,236.64Z" transform="translate(-233.85 -174.07)"/><path class="cls-5" d="M371.61,238.91c-3.1,5.49-12.85,23.14-23,50.81-11.63,31.66-12.34,45.22-12.46,50.81-.5,23,6.47,29.05,8.63,30.67,4.62,3.49,12.36,5.82,18.21,2.88,8.11-4.08,5.33-14.64,12.46-31.64,3.11-7.4,9.92-23.63,25.89-31.63,14.83-7.44,29.73-3.86,33.55-2.88,6,1.54,17.67,4.52,24,14.38,5.52,8.65,1,13.29,5.75,30.68,2.39,8.68,4.53,16.49,11.5,23,1.84,1.71,11.7,10.93,24,8.63,11.12-2.09,17-12.29,18.22-14.38,7.54-13.07-.36-20.47,6.71-35.48a43.41,43.41,0,0,1,18.21-19.17,37.87,37.87,0,0,1,20.13-4.79c1.53.08,16.34,1.09,25.89,12.46,7.87,9.37,3.19,15.09,11.5,33.55,4.6,10.22,8.52,18.6,17.26,22.05,9.87,3.9,19.86-.87,22-1.91,3-1.43,10.42-5.6,18.21-20.14,12.52-23.37,6.13-36.55,20-55.55,6.69-9.12,11.26-10.31,12.55-10.59,13.92-3,28.7,16.44,31.63,20.13,12.11,15.17,13.37,30.14,16.3,29.72,2.69-.39,4.5-13.41,2.88-27.81-3.17-28-16.86-39.11-35.47-80.52-10.54-23.45-6.84-21.44-11.51-27.81-11.17-15.25-30.53-24.28-108.33-28.76-69.18-4-106.63.12-137.09,6.71-24,5.19-44.83,12.19-60.4,29.72C383.08,218.58,379.26,225.36,371.61,238.91Z" transform="translate(-233.85 -174.07)"/><circle class="cls-3" cx="119.04" cy="285.1" r="5.87"/><circle class="cls-3" cx="141.16" cy="294.03" r="5.87"/><circle class="cls-3" cx="167.74" cy="300.65" r="5.87"/><circle class="cls-3" cx="194.24" cy="306.9" r="5.87"/><circle class="cls-3" cx="221.75" cy="311.55" r="5.87"/><circle class="cls-3" cx="245.76" cy="313.51" r="5.87"/><circle class="cls-3" cx="273.26" cy="314.96" r="5.87"/><circle class="cls-3" cx="300.06" cy="314.54" r="5.87"/><circle class="cls-3" cx="327.14" cy="313.21" r="5.87"/><circle class="cls-3" cx="351.89" cy="310.26" r="5.87"/><circle class="cls-3" cx="378.78" cy="306.3" r="5.87"/><circle class="cls-3" cx="405.34" cy="299.56" r="5.87"/><circle class="cls-3" cx="431.29" cy="292.4" r="5.87"/><circle class="cls-3" cx="454.3" cy="284.35" r="5.87"/><path class="cls-3" d="M716.1,444.18a5.87,5.87,0,1,1-5.87-5.88A5.87,5.87,0,0,1,716.1,444.18Z" transform="translate(-233.85 -174.07)"/><path d="M598.68,637.31c2,.79,4.15-5,11.61-10.45,5.18-3.8,6.83-3,16.25-7.74,6.64-3.35,11.1-5.61,15.48-9.68,6.56-6.08,13.21-16.48,10.45-20.12-2.48-3.28-11.84,0-20.89,3.1-9.48,3.28-16.32,5.65-22.84,12.38a42.58,42.58,0,0,0-10.45,19.74C597.33,628.94,596.49,636.45,598.68,637.31Z" transform="translate(-233.85 -174.07)"/><path d="M607.2,645.05c5.48,6.05,22.26,1.81,33.28-4.26,7.2-4,11.81-8.65,15.86-12.77,7.06-7.17,9.37-12,10.06-13.54,1.77-3.91,4.19-9.49,2.33-15.48-1.19-3.79-4.2-8.12-6.58-7.74-2.18.34-1.82,4.3-5.42,10.83a40.46,40.46,0,0,1-8.9,10.84c-2,1.72-4.87,3.23-10.45,6.19-3.94,2.09-8.7,4.5-16.64,8.51a88.46,88.46,0,0,0-10.06,6.2c-3.51,2.48-5.19,4-5.42,6.19C605,642.6,606.92,644.74,607.2,645.05Z" transform="translate(-233.85 -174.07)"/><path d="M433.61,589.28c2.28-3.39,12.23-.35,17.67,1.31a65.37,65.37,0,0,1,21.25,11.28c4.06,3.09,8.22,6.32,11.85,12a35.31,35.31,0,0,1,4.51,10.34c1.59,6.36,1.44,13.71-.19,14.1-1.15.27-2-3.16-5.64-7.14-2.08-2.27-4.14-3.68-11.09-7.34-10.74-5.64-11.5-5.24-16.93-8.46a55,55,0,0,1-12.59-9.4C438.74,602.16,431.16,592.9,433.61,589.28Z" transform="translate(-233.85 -174.07)"/><path d="M424.58,591.72c-2.76,0-5.58,6.42-6,12-.66,8.45,4.09,15.06,7.14,19.18,7.71,10.42,17.74,14.84,22.19,16.74a61.26,61.26,0,0,0,27.45,4.7c5.45-.3,6.23-1.7,6.39-2.26.58-2-3.37-4.75-7.33-7.52-3.47-2.43-5.48-3.35-12-7-5.39-3-8.09-4.45-10.16-5.83a89.26,89.26,0,0,1-10.71-8.46c-3.52-3.15-5.27-4.72-6.59-6.58-2.25-3.18-2.42-4.92-5.45-9.59C427.11,593.53,425.9,591.71,424.58,591.72Z" transform="translate(-233.85 -174.07)"/><path class="cls-6" d="M578.35,702.51c-1.13-.41-.87-13.35,7.61-21.32,6.1-5.73,14.31-6.88,21.11-7.83,4.91-.69,4.81,0,13-.87,8.56-.9,12.94-1.37,17.19-3.48a34.66,34.66,0,0,0,11.53-9.58c4.69-5.86,6.15-11.4,7.18-11.09s.39,4.49,0,6.74a32.34,32.34,0,0,1-5.87,14.36c-6.78,9.18-16.75,11.76-19.37,12.4-5.19,1.28-9.86,1.14-18.49.87-7.65-.23-10-1-14.36.44-5.19,1.73-8.58,5.1-10.88,7.4C580.65,696.93,579.14,702.81,578.35,702.51Z" transform="translate(-233.85 -174.07)"/><path class="cls-7" d="M578.35,719.92c.83.35,3.11-10.89,13-16.75,4.46-2.64,8.89-3.25,13.71-3.92,9.29-1.29,10.65.88,18.93-.43a43.59,43.59,0,0,0,15.66-5.66,32.54,32.54,0,0,0,12.19-12c3.24-5.84,4.23-12.53,3-13.05-1.48-.66-4.22,9.44-13.92,14.36-2.65,1.34-6.12,1.91-13.06,3s-8.9.87-18.27,2.18c-9.16,1.28-11,2.07-12.19,2.61-1,.47-5.38,2.64-10.22,8.7C579.62,708.61,577.52,719.58,578.35,719.92Z" transform="translate(-233.85 -174.07)"/><path class="cls-8" d="M579.22,733c1,.55,4.47-11.72,15.23-15.89,5.25-2,6.63,0,19.8-1.09,7-.6,11.46-1,17-3a39.55,39.55,0,0,0,15.66-10.23c6.53-7.12,9.38-16.05,8.27-16.75-.86-.55-3.71,4.21-11.75,10.44-4.14,3.21-6.62,5.14-10.44,6.53-5,1.8-6.35.58-16.1,1.52-6.13.59-10.56,1-15.89,3a36.07,36.07,0,0,0-12.62,7.61C580.67,722.51,578.29,732.48,579.22,733Z" transform="translate(-233.85 -174.07)"/><path class="cls-6" d="M434,647c.65-.15,1,6.48,6,12.91,5.62,7.3,13.83,10,17.37,11.16,2.21.71,7.25,1.29,17.24,2.43,13.33,1.51,15,1.47,18.24,3,6,2.88,9.5,7.33,11.92,10.43,6.08,7.8,8.79,16.66,7.94,17.12-.59.32-2.5-3.55-7.65-8.92-3.87-4-7.42-7.75-12.49-10.07-5.5-2.51-7.44-.94-21.41-2.55-7-.8-10.47-1.2-13.38-2.16-2.73-.91-14.83-5.25-20.77-17C432.9,655.45,433.25,647.14,434,647Z" transform="translate(-233.85 -174.07)"/><path class="cls-7" d="M432.81,666.1c-.83.35,0,7.93,4.23,14.63,7.84,12.37,23.53,15.68,26.26,16.21a158.64,158.64,0,0,0,21.15,2.3c3.09.1,5.62.08,8.81,1.4,1,.42,4.79,2.11,10.57,9.35,5.24,6.55,7.08,11.38,7.76,11.1s-.41-5.86-2.82-11.28c-1.65-3.71-5.22-11.71-13.75-16.74-4.08-2.42-7.7-3.2-12.51-4.23-6.1-1.32-7.18-.57-16.21-1.77-7.41-1-11.11-1.46-15.16-3.34a38.08,38.08,0,0,1-11.1-8.11C435.06,670.4,433.49,665.82,432.81,666.1Z" transform="translate(-233.85 -174.07)"/><path class="cls-8" d="M434.75,688.84c-1.05,1,4.54,10.84,13.92,17.62a32.46,32.46,0,0,0,12.69,6.17c7.4,1.58,9.35-1.19,18.86-.88,5,.16,12.15.4,18.15,4.58,8.55,6,9.95,16.55,10.93,16.21.8-.27,0-7.43-3.7-14.27-1.63-3-5.05-9.33-12-12.16-2.65-1.08-5.23-1.25-10.4-1.59-6.26-.41-7.16.37-12.68,0A46.61,46.61,0,0,1,458,702.23c-4.12-1.41-7-3.19-12.69-6.7C437.48,690.66,435.32,688.31,434.75,688.84Z" transform="translate(-233.85 -174.07)"/><path class="cls-9" d="M554,729.6c2.15,1,7.42-6,10-10,6.88-10.63,10.51-24.44,7.77-25.91-2.29-1.23-8.7,6.36-11.48,10.36a40.53,40.53,0,0,0-5.55,12.22C554.5,717,551.44,728.46,554,729.6Z" transform="translate(-233.85 -174.07)"/><path class="cls-9" d="M550.62,703c2.19,1,8.19-8.29,10.73-12.22,5.27-8.14,6-12.3,6.3-14.43.43-3.67.23-9.2-1.48-9.63-.73-.18-1.75.56-8.52,12.22-4.62,8-5.54,10-6.29,12.58C550.29,695.13,548.86,702.16,550.62,703Z" transform="translate(-233.85 -174.07)"/><path class="cls-9" d="M547.66,675.19c1.7.79,6.05-5.33,9.62-10.37,6.57-9.24,7.52-14,7.78-15.55.67-4,.7-9.8-1.11-10.36-1.58-.49-4,3.16-7,7.77a56.09,56.09,0,0,0-7.4,14.44C548.18,665.18,545.75,674.3,547.66,675.19Z" transform="translate(-233.85 -174.07)"/><path class="cls-9" d="M548.77,638.17c1.84.82,6.07-4.95,8.14-7.78a54.93,54.93,0,0,0,8.15-17c1.27-4.27,3.14-10.55,1.48-11.47-2-1.13-8.15,6.48-8.89,7.4a43.05,43.05,0,0,0-7,13C548.72,627.8,546.63,637.21,548.77,638.17Z" transform="translate(-233.85 -174.07)"/><path class="cls-9" d="M551.73,603.74c1.26.6,4.64-3.52,6.66-6.66,5.89-9.14,7.58-21.21,5.19-22.22-1.82-.76-6.08,4.79-8.15,8.89-1.37,2.72-1.9,5.39-3,10.73S550.73,603.26,551.73,603.74Z" transform="translate(-233.85 -174.07)"/><path class="cls-9" d="M520.62,708.13c-2,1.81,1.21,8.39,3.6,12.09,3.7,5.71,9.94,11.26,11.83,10,2.05-1.34-1.8-10.21-2.83-12.59-2.39-5.52-4.45-7.18-5.66-8C525.68,708.44,522,706.83,520.62,708.13Z" transform="translate(-233.85 -174.07)"/><path class="cls-9" d="M517.8,686.8c-2,1.76,1.11,8.11,1.54,9,3.51,7.16,10.75,13.54,13.11,12.09,2.13-1.31-.07-8.78-2.32-13.11a15.62,15.62,0,0,0-5.91-6.69C523.78,687.83,519.46,685.33,517.8,686.8Z" transform="translate(-233.85 -174.07)"/><path class="cls-9" d="M517.8,656.72c-1.92,2,1.32,7.76,2.31,9.51,3.67,6.52,10.31,12.6,12.34,11.31s-.88-8.47-2.06-11.56c-1.42-3.72-2.6-6.7-5.65-8.49C522.63,656.26,519.15,655.3,517.8,656.72Z" transform="translate(-233.85 -174.07)"/><path class="cls-9" d="M515,623.05c-1.77,1.61,1.49,8,3.6,11.31,3.32,5.21,9.19,11.23,11.31,10,1.89-1.08.24-7.67-1.55-11.57a18.12,18.12,0,0,0-5.91-7.45C520.67,624.15,516.42,621.73,515,623.05Z" transform="translate(-233.85 -174.07)"/><path class="cls-9" d="M518.57,595.28c-1.91,1.49,2.37,9.68,2.82,10.54,3.32,6.27,9.29,13.46,11.57,12.34,1.83-.89.62-6.76,0-9a20.58,20.58,0,0,0-7.2-10.54C524.94,598,520.12,594.07,518.57,595.28Z" transform="translate(-233.85 -174.07)"/><path class="cls-9" d="M520.37,576.26c-1.83,1.84,2.82,9.06,4.11,11,1.17,1.81,7.4,11.48,10.28,10.29,2.1-.87,1.92-7.29,0-11.83a16.62,16.62,0,0,0-8.48-8.48C524.73,576.58,521.52,575.1,520.37,576.26Z" transform="translate(-233.85 -174.07)"/><path class="cls-9" d="M547.62,571.26c-1.36-.15-9.31,39.63-10,88.4-.73,48.05,5.8,87.36,7.17,87.26s-2.18-34-1.15-90.42C544.58,602.94,548.83,571.38,547.62,571.26Z" transform="translate(-233.85 -174.07)"/><circle class="cls-9" cx="255.48" cy="595.27" r="5.35"/><circle class="cls-9" cx="276.85" cy="589.84" r="5.35"/><circle class="cls-9" cx="298.15" cy="587.98" r="5.35"/><circle class="cls-9" cx="321.57" cy="587.81" r="5.35"/><circle class="cls-9" cx="343.21" cy="589.69" r="5.35"/><circle class="cls-9" cx="363.94" cy="595.38" r="5.35"/><path class="cls-10" d="M440.08,770.58c-2.11-.42-2.75-8.25-2.79-11.68,0-1.44,0-2.55.09-3.06.5-6.17,2.95-15.71,5.46-15.7s5.36,8.58,4.41,16.59C446.37,764.05,442.21,771,440.08,770.58Z" transform="translate(-233.85 -174.07)"/><path class="cls-10" d="M426,758.34c-2.11-.41-2.74-8.24-2.79-11.68a29.32,29.32,0,0,1,.1-3c.49-6.17,2.94-15.71,5.45-15.71s5.36,8.59,4.41,16.6C432.32,751.81,428.16,758.75,426,758.34Z" transform="translate(-233.85 -174.07)"/><path class="cls-10" d="M413.21,740.84c-2.12-.41-2.75-8.24-2.8-11.68,0-1.44.06-2.54.1-3,.49-6.17,2.94-15.71,5.46-15.71s5.36,8.59,4.4,16.6C419.5,734.32,415.33,741.25,413.21,740.84Z" transform="translate(-233.85 -174.07)"/><path class="cls-10" d="M401.68,724.81c-2.11-.41-2.75-8.24-2.79-11.67,0-1.44.05-2.55.09-3.06.5-6.17,2.95-15.71,5.46-15.7S409.8,703,408.85,711C408,718.29,403.81,725.23,401.68,724.81Z" transform="translate(-233.85 -174.07)"/><path class="cls-10" d="M388.54,709.52c-2.12-.41-2.75-8.24-2.8-11.68a29.32,29.32,0,0,1,.1-3.05c.49-6.17,2.94-15.71,5.45-15.71s5.36,8.59,4.41,16.6C394.83,703,390.66,709.93,388.54,709.52Z" transform="translate(-233.85 -174.07)"/><path class="cls-10" d="M375,689.48c-2.12-.42-2.75-8.25-2.79-11.68,0-1.44.05-2.55.09-3.06.5-6.17,2.95-15.71,5.46-15.7s5.36,8.58,4.41,16.59C381.32,683,377.16,689.89,375,689.48Z" transform="translate(-233.85 -174.07)"/><path class="cls-10" d="M362.57,667.64c-2.12-.41-2.75-8.24-2.8-11.68,0-1.44.06-2.54.1-3.06.5-6.16,2.94-15.7,5.46-15.7s5.36,8.59,4.4,16.6C368.86,661.11,364.7,668.05,362.57,667.64Z" transform="translate(-233.85 -174.07)"/><path class="cls-10" d="M351,645.86c-2.12-.41-2.75-8.24-2.79-11.68,0-1.44.05-2.54.09-3.06.5-6.16,2.95-15.7,5.46-15.7s5.36,8.59,4.41,16.6C357.32,639.33,353.16,646.27,351,645.86Z" transform="translate(-233.85 -174.07)"/><path class="cls-10" d="M341.74,626.82c-2.12-.41-2.75-8.25-2.8-11.68,0-1.44.06-2.54.1-3.06.49-6.16,2.94-15.7,5.45-15.7S349.85,605,348.9,613C348,620.29,343.86,627.23,341.74,626.82Z" transform="translate(-233.85 -174.07)"/><path class="cls-10" d="M331.53,598.63c-2.12-.42-2.75-8.25-2.8-11.68,0-1.44.06-2.54.1-3.06.49-6.16,2.94-15.7,5.45-15.7s5.36,8.59,4.41,16.59C337.82,592.1,333.65,599,331.53,598.63Z" transform="translate(-233.85 -174.07)"/><path class="cls-10" d="M323.23,575.38c-2.11-.41-2.75-8.24-2.79-11.68,0-1.44.05-2.54.09-3.05.5-6.17,3-15.71,5.46-15.71s5.36,8.59,4.41,16.6C329.52,568.85,325.36,575.79,323.23,575.38Z" transform="translate(-233.85 -174.07)"/><path class="cls-11" d="M639.17,770.88c2.12-.41,2.75-8.24,2.8-11.67,0-1.44-.06-2.55-.1-3.06-.49-6.17-2.94-15.71-5.46-15.7S631.05,749,632,757C632.88,764.36,637.05,771.3,639.17,770.88Z" transform="translate(-233.85 -174.07)"/><path class="cls-11" d="M653.22,758.65c2.12-.41,2.75-8.24,2.8-11.68,0-1.44-.06-2.54-.1-3.06-.5-6.16-2.94-15.7-5.46-15.7s-5.36,8.59-4.4,16.6C646.93,752.12,651.09,759.06,653.22,758.65Z" transform="translate(-233.85 -174.07)"/><path class="cls-11" d="M666,741.15c2.12-.41,2.75-8.24,2.8-11.68,0-1.44-.06-2.54-.1-3.05-.49-6.17-2.94-15.71-5.45-15.71s-5.36,8.59-4.41,16.6C659.75,734.62,663.92,741.56,666,741.15Z" transform="translate(-233.85 -174.07)"/><path class="cls-11" d="M677.57,725.12c2.12-.41,2.75-8.24,2.8-11.68,0-1.43-.06-2.54-.1-3.05-.49-6.17-2.94-15.71-5.46-15.7s-5.36,8.58-4.4,16.59C671.28,718.6,675.45,725.54,677.57,725.12Z" transform="translate(-233.85 -174.07)"/><path class="cls-11" d="M690.72,709.83c2.12-.41,2.75-8.24,2.8-11.68,0-1.44-.06-2.54-.1-3-.5-6.17-2.95-15.71-5.46-15.71s-5.36,8.59-4.4,16.6C684.43,703.31,688.59,710.24,690.72,709.83Z" transform="translate(-233.85 -174.07)"/><path class="cls-11" d="M704.22,689.78c2.12-.41,2.75-8.24,2.8-11.67,0-1.44-.06-2.55-.1-3.06-.49-6.17-2.94-15.71-5.46-15.7s-5.36,8.58-4.4,16.59C697.93,683.26,702.1,690.2,704.22,689.78Z" transform="translate(-233.85 -174.07)"/><path class="cls-11" d="M716.68,668c2.12-.41,2.75-8.25,2.8-11.68,0-1.44-.06-2.54-.1-3.06-.49-6.16-2.94-15.7-5.45-15.7s-5.36,8.59-4.41,16.59C710.39,661.42,714.56,668.36,716.68,668Z" transform="translate(-233.85 -174.07)"/><path class="cls-11" d="M728.22,646.17c2.12-.41,2.75-8.25,2.8-11.68,0-1.44-.06-2.54-.1-3.06-.49-6.16-2.94-15.7-5.46-15.7s-5.36,8.59-4.4,16.6C721.93,639.64,726.1,646.58,728.22,646.17Z" transform="translate(-233.85 -174.07)"/><path class="cls-11" d="M737.52,627.13c2.12-.42,2.75-8.25,2.79-11.68,0-1.44,0-2.55-.09-3.06-.5-6.17-3-15.71-5.46-15.7s-5.36,8.58-4.41,16.59C731.23,620.6,735.39,627.54,737.52,627.13Z" transform="translate(-233.85 -174.07)"/><path class="cls-11" d="M747.73,598.94c2.12-.42,2.75-8.25,2.79-11.68,0-1.44,0-2.55-.09-3.06-.5-6.17-2.95-15.71-5.46-15.7s-5.36,8.58-4.4,16.59C741.44,592.41,745.6,599.35,747.73,598.94Z" transform="translate(-233.85 -174.07)"/><path class="cls-11" d="M756,575.69c2.12-.41,2.75-8.24,2.8-11.68,0-1.44-.06-2.54-.1-3.06-.49-6.16-2.94-15.7-5.46-15.7s-5.36,8.59-4.4,16.6C749.73,569.16,753.89,576.1,756,575.69Z" transform="translate(-233.85 -174.07)"/></svg>