<svg id="Calque_1" data-name="Calque 1" xmlns="http://www.w3.org/2000/svg" viewBox="0 0 788.91 609.72"><title>logodiadie</title><path d="M422.74,527.87c-7.82-6.49-13.84-10.69-18.9-15.83-17.28-17.55-37.4-33.37-50.61-53.65-24.51-37.64-32.36-80.36-19.34-124.23,3.43-11.54,15.45-20.5,23.4-30.73,3.36-4.32,6.43-8.87,9.64-13.31l6.21,2.32,7.54,5.36c16.73.85,29,1.23,41.18,2.13,44.83,3.29,89.69,6.29,134.46,10.35,23.58,2.14,47,6.28,70.48,9.46a41.73,41.73,0,0,0,7,.28c7.15-.23,18.33-3.58,20.71-.35,8,10.85,15.45,23.41,18.66,36.42,12.54,50.83-1.78,97.52-25.36,142.28-3.61,6.85-6.85,13.89-11.6,23.57,17.85,3,33.18,5.63,48.55,8.09,54.19,8.67,108.34,17.62,162.62,25.67,15.59,2.31,31.57,1.9,47.37,2.85C914.5,559.74,933,578,935.49,597.9c8.15,64.84,12.52,129.89,8.57,195.19-1.71,28.29-6.14,56.43-9.56,84.6-.44,3.6-1.26,8.2-3.68,10.29-5.64,4.89-12.69,12.34-18.58,11.83-9.73-.83-13.45-10.5-12.18-20.38,1.71-13.32,4.67-26.51,5.78-39.87,2.41-28.67,5.12-57.38,5.61-86.11.63-37.61-3.16-75-9.5-112.15-3.63-21.22-6.18-24.38-28-28.36-31.54-5.76-63.13-11.65-94.93-15.58-49-6-98.13-10.54-147.23-15.52-5.92-.59-12-.08-18.74-.08.23,2.62-.19,4.66.61,6Q672,683.85,730.55,779.82c5.58,9.13,12.57,17.5,17.36,27a52.77,52.77,0,0,1,5.75,22.28c.12,9.26-1.94,19.24-13.72,21.38-12.33,2.24-22.87.44-29.14-12.78-10.59-22.3-21.14-44.71-33.28-66.18-17.19-30.4-35.94-59.92-53.75-90-7.59-12.81-14.93-25.79-21.59-39.09-8.43-16.83-25.76-35.67-45.3-46.76,0,7.92-.44,14.94.07,21.9C561.31,677.08,566.41,736.51,570,796c1.56,25.55.49,51.29,0,76.93-.39,20.94-16.29,33.09-30,22.31-7.07-5.54-10.46-16.62-13.76-25.83-2.1-5.88-1.26-12.91-1.25-19.43,0-33.88,1.39-67.8.09-101.62-1.67-43.74-5.33-87.4-8.37-131.08-.38-5.42-2.21-10.74-3.37-16.1l-3.57,0c-9.24,14.84-18.16,29.88-27.78,44.46-14.58,22.1-29.62,43.91-44.52,65.81-16.51,24.26-32.91,48.59-49.69,72.65a380.61,380.61,0,0,1-23.78,31c-9.1,10.53-20.47,7.66-24.65-5.41-1.93-6-4.36-11.93-6.42-17.94-6.21-18.11,2.35-30.32,13.55-44.33,20.84-26.08,38.41-54.77,57.36-82.37,13.94-20.3,28.09-40.47,41.72-61,3.29-4.95,4.91-11,8.13-18.5-16.61,2.07-29.9,3.24-43,5.43-54.15,9.07-108.24,18.54-162.39,27.62-9.15,1.54-18.51,1.9-27.77,2.8-16.59,1.59-23.6,8.47-23.26,25,.37,17.66,3,35.31,2.83,53-.27,37.69-.85,75.43-3.14,113-.62,10.19-6.1,21.26-12.42,29.59-6.92,9.11-21.46,4.05-23-7.37a389.65,389.65,0,0,1-3-41.4c-.89-38.63-3-77.34-1.4-115.89,1.47-35.64,6.66-71.17,11.56-106.57.58-4.17,9.58-10,14.89-10.26,77.41-3.5,153.48-17.18,229.81-29C415.6,531.29,417.59,530,422.74,527.87Zm78.58-17.42c.88-4.5,1.67-6.32,1.51-8.06-4.52-47.22-8.86-94.46-14.2-141.59-.45-4-7.44-9.91-11.78-10.27-26.43-2.25-53-3.95-79.47-4.23-22.61-.25-26.22,4.56-22.12,26.76,11.75,63.6,51,104.94,107.93,131.57C488.47,507.1,494.36,508.26,501.32,510.45Zm27.1-150.52c-4,51.13,5.53,98.92,16,146.55.66,3,5.32,6.86,8.54,7.31,20.23,2.85,41-9.55,48.82-28.59,5-12,9.83-24.14,14.22-36.4,8-22.47,11-45.31,1.47-68.05-1.92-4.54-6.41-10.61-10.43-11.22C581.43,365.65,555.62,363.09,528.42,359.93Z" transform="translate(-156.63 -290.12)"/></svg>